# Blender v2.83.9 OBJ File: ''
# www.blender.org
mtllib FlumptyPicture.mtl
o Cube
v 1.183161 2.225135 0.039840
v 1.183161 0.006592 0.098120
v 1.183161 2.224498 0.015567
v 1.183161 0.005954 0.073847
v -1.183161 2.225135 0.039840
v -1.183161 0.006592 0.098120
v -1.183161 2.224498 0.015567
v -1.183161 0.005954 0.073847
vt 1.001772 0.981232
vt -0.004093 0.981232
vt -0.004093 0.991534
vt 1.001772 0.991534
vt -0.004093 -0.002977
vt -0.931212 -0.002977
vt -0.931212 0.981232
vt 1.978063 -0.002977
vt 1.968264 -0.002977
vt 1.968264 0.981232
vt 1.978063 0.981231
vt 1.001771 0.004940
vt -0.004093 0.004940
vt 1.001772 -0.002977
vn 0.0000 0.9997 -0.0263
vn 0.0000 -0.0263 -0.9997
vn -1.0000 0.0000 0.0000
vn 0.0000 -0.9997 0.0263
vn 1.0000 0.0000 0.0000
vn 0.0000 0.0263 0.9997
usemtl FlumptyPA
s off
f 1/1/1 3/2/1 7/3/1 5/4/1
f 4/5/2 8/6/2 7/7/2 3/2/2
f 8/8/3 6/9/3 5/10/3 7/11/3
f 6/12/4 8/13/4 4/5/4 2/14/4
f 2/14/5 4/5/5 3/2/5 1/1/5
f 6/9/6 2/14/6 1/1/6 5/10/6
