# Blender 3.5.1
# www.blender.org
mtllib FNAF1WallPizzaSlice.mtl
o wallpizzaslice.smd
v 0.467138 0.467580 -0.045094
v 0.000000 0.000000 -0.045094
v 0.443367 0.443786 -0.019875
v 0.000000 0.000000 -0.045094
v -0.000000 -0.000000 -0.001866
v 0.441716 0.442134 -0.001866
v 0.443367 0.443786 -0.019875
v 0.467138 0.467580 -0.045094
v 0.467138 0.467580 -0.019875
v 0.388241 0.534900 -0.019875
v 0.388241 0.534900 -0.045094
v 0.299785 0.589049 -0.019875
v 0.299785 0.589049 -0.045094
v 0.203946 0.628693 -0.019875
v 0.203946 0.628693 -0.045094
v 0.103086 0.652858 -0.019875
v 0.103086 0.652858 -0.045094
v -0.000313 0.660946 -0.019875
v -0.000313 0.660946 -0.045094
v -0.000297 0.627312 -0.019875
v -0.000313 0.660946 -0.019875
v 0.097840 0.619635 -0.019875
v 0.103086 0.652858 -0.019875
v 0.193568 0.596701 -0.019875
v 0.203946 0.628693 -0.019875
v 0.284529 0.559074 -0.019875
v 0.299785 0.589049 -0.019875
v 0.388241 0.534900 -0.019875
v 0.368485 0.507680 -0.019875
v 0.467138 0.467580 -0.019875
v 0.443367 0.443786 -0.019875
v 0.467138 0.467580 -0.045094
v 0.443367 0.443786 -0.019875
v 0.467138 0.467580 -0.019875
v 0.443367 0.443786 -0.019875
v 0.441716 0.442134 -0.001866
v 0.368485 0.507680 -0.019875
v 0.367113 0.505790 -0.001866
v 0.283470 0.556992 -0.001866
v 0.284529 0.559074 -0.019875
v 0.192847 0.594479 -0.001866
v 0.193568 0.596701 -0.019875
v 0.097476 0.617328 -0.001866
v 0.097840 0.619635 -0.019875
v -0.000296 0.624976 -0.001866
v -0.000297 0.627312 -0.019875
v -0.000313 0.660946 -0.019875
v -0.000297 0.627312 -0.019875
v -0.000313 0.660946 -0.045094
v 0.000000 0.000000 -0.045094
v -0.000000 -0.000000 -0.001866
v -0.000296 0.624976 -0.001866
v -0.000000 -0.000000 -0.001866
v -0.000296 0.624976 -0.001866
v 0.097476 0.617328 -0.001866
v 0.192847 0.594479 -0.001866
v 0.283470 0.556992 -0.001866
v 0.367113 0.505790 -0.001866
v 0.441716 0.442134 -0.001866
vn -0.0000 -0.0000 1.0000
vn -1.0000 -0.0005 -0.0000
vn 0.0773 0.9887 0.1282
vn 0.1547 0.9796 0.1286
vn 0.3060 0.9433 0.1286
vn 0.4498 0.8838 0.1286
vn 0.5825 0.8026 0.1286
vn 0.6437 0.7544 0.1282
vn 0.7074 -0.7068 -0.0000
vn 0.0780 0.9970 -0.0000
vn 0.1560 0.9878 -0.0000
vn 0.3086 0.9512 -0.0000
vn 0.4536 0.8912 -0.0000
vn 0.5874 0.8093 -0.0000
vn 0.6491 0.7607 -0.0000
vt 0.000031 0.999969
vt 1.000000 0.500000
vt 0.000031 0.000000
vt 1.000000 0.999969
vt 1.000000 0.000000
vt 0.000031 0.000000
vt 0.000031 0.999969
vt 0.339111 0.485352
vt 0.335693 0.477051
vt 0.301514 0.487793
vt 0.303467 0.496582
vt 0.265625 0.493164
vt 0.266113 0.501953
vt 0.229614 0.492676
vt 0.228271 0.501465
vt 0.193970 0.485352
vt 0.190430 0.493164
vt 0.162842 0.469238
vt 0.155884 0.470215
vt 0.166870 0.459473
vt 0.162842 0.469238
vt 0.198364 0.474121
vt 0.193970 0.485352
vt 0.231323 0.480469
vt 0.229614 0.492676
vt 0.265137 0.480469
vt 0.265625 0.493164
vt 0.301514 0.487793
vt 0.298828 0.475586
vt 0.335693 0.477051
vt 0.331299 0.465332
vt 0.500000 0.999969
vt 1.000000 0.000000
vt 0.000031 0.000000
vt 0.331299 0.465332
vt 0.328613 0.458008
vt 0.298828 0.475586
vt 0.297119 0.467773
vt 0.264893 0.473145
vt 0.265137 0.480469
vt 0.232422 0.473145
vt 0.231323 0.480469
vt 0.200806 0.467773
vt 0.198364 0.474121
vt 0.171509 0.458496
vt 0.166870 0.459473
vt 0.162842 0.469238
vt 0.166870 0.459473
vt 0.155884 0.470215
vt 0.239868 0.256836
vt 0.247192 0.251953
vt 0.171509 0.458496
vt 0.247192 0.251953
vt 0.171509 0.458496
vt 0.200806 0.467773
vt 0.232422 0.473145
vt 0.264893 0.473145
vt 0.297119 0.467773
vt 0.328613 0.458008
s 1
usemtl WallPizza
f 59/59/1 58/58/1 53/53/1
f 58/58/1 57/57/1 53/53/1
f 57/57/1 56/56/1 53/53/1
f 56/56/1 55/55/1 53/53/1
f 55/55/1 54/54/1 53/53/1
f 51/51/2 52/52/2 48/48/2
f 48/48/2 50/50/2 51/51/2
f 50/50/2 48/48/2 49/49/2
f 49/49/2 48/48/2 47/47/2
f 45/45/3 44/44/4 46/46/3
f 45/45/3 43/43/4 44/44/4
f 43/43/4 42/42/5 44/44/4
f 43/43/4 41/41/5 42/42/5
f 41/41/5 40/40/6 42/42/5
f 41/41/5 39/39/6 40/40/6
f 39/39/6 37/37/7 40/40/6
f 39/39/6 38/38/7 37/37/7
f 36/36/8 37/37/7 38/38/7
f 37/37/7 36/36/8 35/35/8
f 34/34/9 33/33/9 32/32/9
f 30/30/1 29/29/1 31/31/1
f 30/30/1 28/28/1 29/29/1
f 28/28/1 26/26/1 29/29/1
f 26/26/1 28/28/1 27/27/1
f 25/25/1 26/26/1 27/27/1
f 26/26/1 25/25/1 24/24/1
f 23/23/1 24/24/1 25/25/1
f 24/24/1 23/23/1 22/22/1
f 21/21/1 22/22/1 23/23/1
f 22/22/1 21/21/1 20/20/1
f 18/18/10 17/17/11 19/19/10
f 18/18/10 16/16/11 17/17/11
f 16/16/11 15/15/12 17/17/11
f 16/16/11 14/14/12 15/15/12
f 14/14/12 13/13/13 15/15/12
f 14/14/12 12/12/13 13/13/13
f 12/12/13 11/11/14 13/13/13
f 12/12/13 10/10/14 11/11/14
f 10/10/14 8/8/15 11/11/14
f 10/10/14 9/9/15 8/8/15
f 6/6/9 4/4/9 7/7/9
f 6/6/9 5/5/9 4/4/9
f 3/3/9 2/2/9 1/1/9
