# Blender 3.5.1
# www.blender.org
mtllib FNAF1RepairTable.mtl
o repairtable.smd
v 1.230861 1.516637 2.452465
v 1.230861 0.000000 2.539136
v 1.230861 1.516637 2.654372
v 1.230861 0.000000 2.654372
v 1.115625 0.000000 2.654372
v 1.115625 0.000000 2.539136
v 1.028954 1.516637 2.654372
v 1.028954 1.516637 2.452465
v -1.230861 1.379282 2.705128
v -1.230861 1.532843 2.705128
v 1.230861 1.379282 2.705128
v 1.230861 1.532843 2.705128
v 1.230861 1.532844 2.654372
v 1.230861 1.379282 2.654372
v 1.230861 1.532843 2.705128
v 1.230861 1.379282 2.705128
v -1.230861 1.532844 2.654372
v -1.230861 1.532843 2.705128
v -1.230861 1.379282 2.654372
v -1.230861 1.379282 2.705128
v 1.230861 1.379282 2.705128
v 1.230861 1.379282 2.654372
v -1.230861 1.379282 2.705128
v -1.230861 1.379282 2.654372
v -1.230861 1.532844 2.654372
v -1.230861 1.379282 2.654372
v 1.230861 1.532844 2.654372
v 1.230861 1.379282 2.654372
v -1.230861 0.000000 2.654372
v -1.230861 1.516637 2.654372
v -1.115625 0.000000 2.654372
v -1.028954 1.516637 2.654372
v -1.028954 1.516637 2.452465
v -1.115625 0.000000 2.539136
v -1.028954 1.516637 2.654372
v -1.115625 0.000000 2.654372
v -1.230861 1.516637 2.452465
v -1.230861 1.516637 2.654372
v -1.230861 0.000000 2.539136
v -1.230861 0.000000 2.654372
v 1.230861 0.000000 0.057618
v 1.115625 0.000000 0.057618
v 1.230861 1.516637 0.100953
v 1.028954 1.516637 0.100954
v 1.230861 0.000000 -0.057618
v 1.230861 1.516637 -0.100953
v 1.115625 0.000000 -0.057618
v 1.028954 1.516637 -0.100953
v 1.115625 0.000000 -0.057618
v 1.028954 1.516637 -0.100953
v 1.115625 0.000000 0.057618
v 1.028954 1.516637 0.100954
v 1.230861 0.000000 -0.057618
v 1.230861 0.000000 0.057618
v 1.230861 1.516637 -0.100953
v 1.230861 1.516637 0.100953
v -1.028954 1.516637 -0.100953
v -1.230861 1.516637 -0.100953
v -1.115625 0.000000 -0.057618
v -1.230861 0.000000 -0.057618
v -1.115625 0.000000 -0.057618
v -1.115625 0.000000 0.057618
v -1.028954 1.516637 -0.100953
v -1.028954 1.516637 0.100954
v 1.281617 1.541603 -2.705128
v 1.281617 1.379282 -2.705128
v 1.281617 1.541603 2.705128
v 1.281617 1.379282 2.705128
v 1.230861 1.379282 2.705128
v 1.230861 1.379282 -2.705128
v 1.230861 1.541603 2.705128
v 1.230861 1.541603 -2.705128
v 1.308738 1.516637 2.747887
v 1.308738 1.516637 -2.747887
v -1.308738 1.516637 2.747887
v -1.308738 1.516637 -2.747887
v -1.281617 1.379282 2.705128
v -1.281617 1.379282 -2.705128
v -1.281617 1.541603 2.705128
v -1.281617 1.541603 -2.705128
v -1.230861 1.379282 2.705128
v -1.281617 1.379282 2.705128
v -1.230861 1.541603 2.705128
v -1.281617 1.541603 2.705128
v -1.230861 1.541603 -2.705128
v -1.230861 1.379282 -2.705128
v -1.230861 1.541603 2.705128
v -1.230861 1.379282 2.705128
v 1.230861 1.532843 -2.705128
v -1.230861 1.532843 -2.705128
v 1.230861 1.379282 -2.705128
v -1.230861 1.379282 -2.705128
v 1.230861 1.379282 -2.705128
v 1.230861 1.379282 -2.654372
v 1.230861 1.532843 -2.705128
v 1.230861 1.532844 -2.654372
v -1.230861 1.379282 -2.705128
v -1.230861 1.532843 -2.705128
v -1.230861 1.379282 -2.654372
v -1.230861 1.532844 -2.654372
v -1.028954 1.516637 -2.654372
v -1.230861 1.516637 -2.654372
v -1.115625 0.000000 -2.654372
v -1.230861 0.000000 -2.654372
v -1.115625 0.000000 -2.654372
v -1.115625 0.000000 -2.539136
v -1.028954 1.516637 -2.654372
v -1.028954 1.516637 -2.452465
v 1.230861 0.000000 -2.539136
v 1.115625 0.000000 -2.539136
v 1.230861 1.516637 -2.452465
v 1.028954 1.516637 -2.452465
v 1.230861 0.000000 -2.654372
v 1.230861 1.516637 -2.654372
v 1.115625 0.000000 -2.654372
v 1.028954 1.516637 -2.654372
v 1.115625 0.000000 -2.654372
v 1.028954 1.516637 -2.654372
v 1.115625 0.000000 -2.539136
v 1.028954 1.516637 -2.452465
v 1.230861 0.000000 -2.654372
v 1.230861 0.000000 -2.539136
v 1.230861 1.516637 -2.654372
v 1.230861 1.516637 -2.452465
v 1.230861 0.000000 2.654372
v 1.115625 0.000000 2.654372
v 1.230861 1.516637 2.654372
v 1.028954 1.516637 2.654372
v 1.115625 0.000000 2.539136
v 1.230861 0.000000 2.539136
v 1.230861 1.516637 2.452465
v 1.028954 1.516637 2.452465
v -1.230861 0.000000 -2.539136
v -1.230861 0.000000 -2.654372
v -1.230861 1.516637 -2.654372
v -1.230861 1.516637 -2.452465
v -1.230861 1.516637 -2.452465
v -1.028954 1.516637 -2.452465
v -1.115625 0.000000 -2.539136
v -1.230861 0.000000 -2.539136
v 1.230861 1.532844 -2.654372
v 1.230861 1.379282 -2.654372
v -1.230861 1.379282 -2.654372
v -1.230861 1.532844 -2.654372
v 1.230861 1.379282 -2.654372
v 1.230861 1.379282 -2.705128
v -1.230861 1.379282 -2.705128
v -1.230861 1.379282 -2.654372
v -1.281617 1.379282 -2.705128
v -1.230861 1.379282 2.705128
v -1.230861 1.379282 -2.705128
v -1.281617 1.379282 2.705128
v -1.281617 1.541603 -2.705128
v -1.230861 1.379282 -2.705128
v -1.230861 1.541603 -2.705128
v -1.281617 1.379282 -2.705128
v 1.308738 1.516637 -2.747887
v 1.308738 1.567393 -2.747887
v -1.308738 1.567393 -2.747887
v -1.308738 1.516637 -2.747887
v -1.308738 1.567393 2.747887
v 1.308738 1.567393 -2.747887
v 1.308738 1.567393 2.747887
v -1.308738 1.567393 -2.747887
v 1.308738 1.567393 2.747887
v 1.308738 1.516637 2.747887
v -1.308738 1.516637 2.747887
v -1.308738 1.567393 2.747887
v -1.308738 1.567393 2.747887
v -1.308738 1.516637 2.747887
v -1.308738 1.516637 -2.747887
v -1.308738 1.567393 -2.747887
v 1.308738 1.516637 2.747887
v 1.308738 1.567393 2.747887
v 1.308738 1.567393 -2.747887
v 1.308738 1.516637 -2.747887
v 1.230861 1.379282 2.705128
v 1.281617 1.379282 2.705128
v 1.281617 1.379282 -2.705128
v 1.230861 1.379282 -2.705128
v 1.230861 1.541603 2.705128
v 1.281617 1.541603 2.705128
v 1.281617 1.379282 2.705128
v 1.230861 1.379282 2.705128
v 1.230861 1.379282 -2.705128
v 1.281617 1.379282 -2.705128
v 1.281617 1.541603 -2.705128
v 1.230861 1.541603 -2.705128
v -1.230861 0.000000 0.057618
v -1.230861 0.000000 -0.057618
v -1.230861 1.516637 -0.100953
v -1.230861 1.516637 0.100953
v -1.230861 1.516637 0.100953
v -1.028954 1.516637 0.100954
v -1.115625 0.000000 0.057618
v -1.230861 0.000000 0.057618
v -1.230861 1.516637 2.452465
v -1.115625 0.000000 2.539136
v -1.028954 1.516637 2.452465
v -1.230861 0.000000 2.539136
vn -0.0000 -0.0571 -0.9984
vn -0.0000 -0.0286 0.9996
vn -1.0000 -0.0000 -0.0000
vn -0.0000 -0.0000 -1.0000
vn -0.0000 -0.0000 1.0000
vn -0.0000 -1.0000 -0.0000
vn 1.0000 -0.0000 -0.0000
vn -0.0000 1.0000 -0.0000
vn -0.0000 -0.0571 0.9984
vn -0.9984 -0.0571 -0.0000
vn 0.9984 -0.0571 -0.0000
vn -0.0000 -0.0286 -0.9996
vt 0.910156 0.742920
vt 0.924805 0.482422
vt 0.944824 0.742920
vt 0.944824 0.482422
vt 0.983398 0.741699
vt 0.963867 0.741699
vt 0.983398 0.480469
vt 0.948730 0.480469
vt 0.947266 0.001953
vt 0.920898 0.001953
vt 0.947266 0.452637
vt 0.920898 0.452637
vt 0.077271 0.983765
vt 0.050873 0.983765
vt 0.077271 0.975037
vt 0.050873 0.975037
vt 0.028259 0.469238
vt 0.028259 0.478027
vt 0.001849 0.469238
vt 0.001849 0.478027
vt 0.996582 0.452637
vt 0.987793 0.452637
vt 0.996582 0.001953
vt 0.987793 0.001953
vt 0.920898 0.001953
vt 0.947266 0.001953
vt 0.920898 0.452637
vt 0.947266 0.452637
vt 0.001849 0.728516
vt 0.262207 0.743408
vt 0.002979 0.708740
vt 0.264160 0.708740
vt 0.948730 0.480469
vt 0.963867 0.741699
vt 0.983398 0.480469
vt 0.983398 0.741699
vt 0.910156 0.742920
vt 0.944824 0.742920
vt 0.924805 0.482422
vt 0.944824 0.482422
vt 0.264648 0.501953
vt 0.263428 0.482422
vt 0.003828 0.516846
vt 0.001849 0.482422
vt 0.001849 0.728516
vt 0.262207 0.743408
vt 0.002979 0.708740
vt 0.264160 0.708740
vt 0.983398 0.741699
vt 0.983398 0.480469
vt 0.963867 0.741699
vt 0.948730 0.480469
vt 0.944824 0.482422
vt 0.924805 0.482422
vt 0.944824 0.742920
vt 0.910156 0.742920
vt 0.264160 0.708740
vt 0.262207 0.743408
vt 0.002979 0.708740
vt 0.001849 0.728516
vt 0.983398 0.741699
vt 0.963867 0.741699
vt 0.983398 0.480469
vt 0.948730 0.480469
vt 0.001849 0.424316
vt 0.001849 0.452637
vt 0.947266 0.424316
vt 0.947266 0.452637
vt 0.947266 0.452637
vt 0.001849 0.452637
vt 0.947266 0.424316
vt 0.001849 0.424316
vt 0.947266 0.452637
vt 0.001849 0.452637
vt 0.947266 0.001953
vt 0.001849 0.001953
vt 0.947266 0.452637
vt 0.001849 0.452637
vt 0.947266 0.424316
vt 0.001849 0.424316
vt 0.996582 0.452637
vt 0.987793 0.452637
vt 0.996582 0.424316
vt 0.987793 0.424316
vt 0.001849 0.424316
vt 0.001849 0.452637
vt 0.947266 0.424316
vt 0.947266 0.452637
vt 0.920898 0.452637
vt 0.920898 0.001953
vt 0.947266 0.452637
vt 0.947266 0.001953
vt 0.050873 0.975037
vt 0.050873 0.983765
vt 0.077271 0.975037
vt 0.077271 0.983765
vt 0.001849 0.478027
vt 0.028259 0.478027
vt 0.001849 0.469238
vt 0.028259 0.469238
vt 0.264160 0.708740
vt 0.262207 0.743408
vt 0.002979 0.708740
vt 0.001849 0.728516
vt 0.983398 0.741699
vt 0.963867 0.741699
vt 0.983398 0.480469
vt 0.948730 0.480469
vt 0.264648 0.501953
vt 0.263428 0.482422
vt 0.003828 0.516846
vt 0.001849 0.482422
vt 0.001849 0.728516
vt 0.262207 0.743408
vt 0.002979 0.708740
vt 0.264160 0.708740
vt 0.983398 0.741699
vt 0.983398 0.480469
vt 0.963867 0.741699
vt 0.948730 0.480469
vt 0.944824 0.482422
vt 0.924805 0.482422
vt 0.944824 0.742920
vt 0.910156 0.742920
vt 0.001849 0.728516
vt 0.002979 0.708740
vt 0.262207 0.743408
vt 0.264160 0.708740
vt 0.263428 0.482422
vt 0.264648 0.501953
vt 0.003828 0.516846
vt 0.001849 0.482422
vt 0.924805 0.482422
vt 0.944824 0.482422
vt 0.944824 0.742920
vt 0.910156 0.742920
vt 0.003828 0.516846
vt 0.001849 0.482422
vt 0.263428 0.482422
vt 0.264648 0.501953
vt 0.920898 0.452637
vt 0.947266 0.452637
vt 0.947266 0.001953
vt 0.920898 0.001953
vt 0.987793 0.452637
vt 0.996582 0.452637
vt 0.996582 0.001953
vt 0.987793 0.001953
vt 0.996094 0.983765
vt 0.050873 0.975037
vt 0.996094 0.975037
vt 0.050873 0.983765
vt 0.996582 0.943268
vt 0.987793 0.971176
vt 0.987793 0.943268
vt 0.996582 0.971176
vt 0.987793 0.971176
vt 0.996582 0.971176
vt 0.996582 0.520996
vt 0.987793 0.520996
vt 0.947266 0.001953
vt 0.001849 0.452637
vt 0.947266 0.452637
vt 0.001849 0.001953
vt 0.987793 0.452637
vt 0.996582 0.452637
vt 0.996582 0.001953
vt 0.987793 0.001953
vt 0.001849 0.469238
vt 0.001849 0.478027
vt 0.947266 0.478027
vt 0.947266 0.469238
vt 0.050873 0.975037
vt 0.050873 0.983765
vt 0.996094 0.983765
vt 0.996094 0.975037
vt 0.050873 0.975037
vt 0.050873 0.983765
vt 0.996094 0.983765
vt 0.996094 0.975037
vt 0.996582 0.424316
vt 0.987793 0.424316
vt 0.987793 0.452637
vt 0.996582 0.452637
vt 0.987793 0.971176
vt 0.996582 0.971176
vt 0.996582 0.943268
vt 0.987793 0.943268
vt 0.924805 0.482422
vt 0.944824 0.482422
vt 0.944824 0.742920
vt 0.910156 0.742920
vt 0.003828 0.516846
vt 0.001849 0.482422
vt 0.263428 0.482422
vt 0.264648 0.501953
vt 0.003828 0.516846
vt 0.263428 0.482422
vt 0.001849 0.482422
vt 0.264648 0.501953
s 1
usemtl RepairTable
f 200/200/1 197/197/1 198/198/1
f 199/199/1 198/198/1 197/197/1
f 195/195/2 193/193/2 196/196/2
f 195/195/2 194/194/2 193/193/2
f 189/189/3 192/192/3 191/191/3
f 191/191/3 190/190/3 189/189/3
f 187/187/4 185/185/4 188/188/4
f 187/187/4 186/186/4 185/185/4
f 183/183/5 181/181/5 184/184/5
f 183/183/5 182/182/5 181/181/5
f 179/179/6 177/177/6 180/180/6
f 179/179/6 178/178/6 177/177/6
f 175/175/7 173/173/7 176/176/7
f 175/175/7 174/174/7 173/173/7
f 171/171/3 169/169/3 172/172/3
f 171/171/3 170/170/3 169/169/3
f 165/165/5 168/168/5 167/167/5
f 167/167/5 166/166/5 165/165/5
f 164/164/8 161/161/8 162/162/8
f 163/163/8 162/162/8 161/161/8
f 157/157/4 160/160/4 159/159/4
f 159/159/4 158/158/4 157/157/4
f 156/156/4 153/153/4 154/154/4
f 155/155/4 154/154/4 153/153/4
f 152/152/6 149/149/6 150/150/6
f 151/151/6 150/150/6 149/149/6
f 145/145/6 148/148/6 147/147/6
f 147/147/6 146/146/6 145/145/6
f 141/141/5 144/144/5 143/143/5
f 143/143/5 142/142/5 141/141/5
f 139/139/9 137/137/9 140/140/9
f 139/139/9 138/138/9 137/137/9
f 133/133/3 136/136/3 135/135/3
f 135/135/3 134/134/3 133/133/3
f 131/131/1 129/129/1 132/132/1
f 131/131/1 130/130/1 129/129/1
f 126/126/5 127/127/5 128/128/5
f 127/127/5 126/126/5 125/125/5
f 124/124/7 122/122/7 123/123/7
f 123/123/7 122/122/7 121/121/7
f 118/118/10 119/119/10 120/120/10
f 119/119/10 118/118/10 117/117/10
f 114/114/4 115/115/4 116/116/4
f 115/115/4 114/114/4 113/113/4
f 110/110/9 111/111/9 112/112/9
f 111/111/9 110/110/9 109/109/9
f 106/106/11 107/107/11 108/108/11
f 107/107/11 106/106/11 105/105/11
f 102/102/4 103/103/4 104/104/4
f 103/103/4 102/102/4 101/101/4
f 98/98/3 99/99/3 100/100/3
f 99/99/3 98/98/3 97/97/3
f 94/94/7 95/95/7 96/96/7
f 95/95/7 94/94/7 93/93/7
f 90/90/4 91/91/4 92/92/4
f 91/91/4 90/90/4 89/89/4
f 86/86/7 87/87/7 88/88/7
f 87/87/7 86/86/7 85/85/7
f 82/82/5 83/83/5 84/84/5
f 83/83/5 82/82/5 81/81/5
f 78/78/3 79/79/3 80/80/3
f 79/79/3 78/78/3 77/77/3
f 74/74/6 75/75/6 76/76/6
f 75/75/6 74/74/6 73/73/6
f 70/70/3 71/71/3 72/72/3
f 71/71/3 70/70/3 69/69/3
f 66/66/7 67/67/7 68/68/7
f 67/67/7 66/66/7 65/65/7
f 62/62/11 63/63/11 64/64/11
f 63/63/11 62/62/11 61/61/11
f 58/58/12 59/59/12 60/60/12
f 59/59/12 58/58/12 57/57/12
f 56/56/7 54/54/7 55/55/7
f 55/55/7 54/54/7 53/53/7
f 50/50/10 51/51/10 52/52/10
f 51/51/10 50/50/10 49/49/10
f 46/46/12 47/47/12 48/48/12
f 47/47/12 46/46/12 45/45/12
f 42/42/2 43/43/2 44/44/2
f 43/43/2 42/42/2 41/41/2
f 40/40/3 38/38/3 39/39/3
f 39/39/3 38/38/3 37/37/3
f 34/34/11 35/35/11 36/36/11
f 35/35/11 34/34/11 33/33/11
f 30/30/5 31/31/5 32/32/5
f 31/31/5 30/30/5 29/29/5
f 28/28/4 26/26/4 27/27/4
f 27/27/4 26/26/4 25/25/4
f 22/22/6 23/23/6 24/24/6
f 23/23/6 22/22/6 21/21/6
f 18/18/3 19/19/3 20/20/3
f 19/19/3 18/18/3 17/17/3
f 14/14/7 15/15/7 16/16/7
f 15/15/7 14/14/7 13/13/7
f 12/12/5 10/10/5 11/11/5
f 11/11/5 10/10/5 9/9/5
f 6/6/10 7/7/10 8/8/10
f 7/7/10 6/6/10 5/5/10
f 2/2/7 3/3/7 4/4/7
f 3/3/7 2/2/7 1/1/7
