# Blender v2.83.9 OBJ File: ''
# www.blender.org
mtllib ONAFRedShroom.mtl
o Circle
v -0.000000 0.009796 -0.505282
v -0.000000 3.649100 -0.839396
v 0.329251 0.009796 -0.417060
v 0.595218 3.603318 -0.683122
v 0.570280 0.009796 -0.176031
v 1.030948 3.478239 -0.256175
v 0.658503 0.009796 0.153220
v 1.190437 3.307379 0.327045
v 0.570280 0.009796 0.482472
v 1.030948 3.136518 0.910266
v 0.329251 0.009796 0.723500
v 0.595218 3.011439 1.337212
v 0.000000 0.009796 0.811723
v 0.000000 2.965657 1.493486
v -0.329251 0.009796 0.723500
v -0.595218 3.011439 1.337212
v -0.570280 0.009796 0.482472
v -1.030948 3.136518 0.910266
v -0.658503 0.009796 0.153221
v -1.190437 3.307378 0.327046
v -0.570280 0.009796 -0.176031
v -1.030949 3.478239 -0.256175
v -0.329252 0.009796 -0.417060
v -0.595219 3.603317 -0.683122
v -0.000000 1.183646 -0.572064
v -0.000000 2.277659 -0.473292
v -0.000000 3.247181 -0.238012
v 0.268633 3.231000 -0.166652
v 0.298374 2.271076 -0.392026
v 0.318799 1.183646 -0.486655
v 0.465287 3.186698 0.028277
v 0.516799 2.252636 -0.170144
v 0.552177 1.183646 -0.253311
v 0.537267 3.125956 0.294487
v 0.596748 2.226380 0.132645
v 0.637599 1.183646 0.065442
v 0.465287 3.064960 0.560622
v 0.516799 2.198903 0.435112
v 0.552177 1.183646 0.384194
v 0.268633 3.020149 0.755400
v 0.298374 2.178021 0.656345
v 0.318799 1.183646 0.617537
v 0.000000 3.003714 0.826685
v 0.000000 2.170217 0.737285
v 0.000000 1.183646 0.702947
v -0.268633 3.020149 0.755401
v -0.298374 2.178021 0.656345
v -0.318799 1.183646 0.617538
v -0.465287 3.064960 0.560622
v -0.516799 2.198903 0.435112
v -0.552177 1.183646 0.384195
v -0.537267 3.125956 0.294487
v -0.596748 2.226380 0.132646
v -0.637599 1.183646 0.065442
v -0.465287 3.186698 0.028278
v -0.516799 2.252636 -0.170144
v -0.552177 1.183646 -0.253311
v -0.268634 3.231000 -0.166652
v -0.298374 2.271076 -0.392026
v -0.318800 1.183646 -0.486654
v -0.000000 4.860001 0.131863
v 0.203551 4.844344 0.185305
v 0.352560 4.801570 0.331311
v 0.407102 4.743140 0.530759
v 0.352560 4.684710 0.730207
v 0.203551 4.641935 0.876213
v 0.000000 4.626279 0.929654
v -0.203551 4.641935 0.876213
v -0.352560 4.684710 0.730207
v -0.407102 4.743140 0.530759
v -0.352561 4.801570 0.331311
v -0.203551 4.844344 0.185305
v -0.889188 3.937622 -1.155332
v -1.122595 4.257343 -1.522557
v 0.000000 4.343689 -1.817293
v 0.000000 4.006015 -1.388787
v 1.122594 4.257343 -1.522559
v 0.889187 3.937622 -1.155332
v 1.540117 3.750769 -0.517523
v 1.944390 4.021443 -0.717328
v 2.245188 3.699196 0.382638
v 1.778374 3.495523 0.353740
v -1.540117 3.750769 -0.517523
v -1.944390 4.021442 -0.717327
v -1.778373 3.495523 0.353741
v -2.245188 3.699196 0.382639
v -1.540116 3.240277 1.225004
v -1.944389 3.376949 1.482604
v -0.889186 3.053424 1.862812
v -1.122593 3.141049 2.287835
v 0.000000 2.985032 2.096267
v 0.000000 3.054703 2.582569
v 0.889187 3.053424 1.862812
v 1.122594 3.141049 2.287835
v 1.540117 3.240278 1.225003
v 1.944390 3.376950 1.482604
v -0.995206 4.493366 -1.263886
v -0.827943 4.717882 -0.936364
v -0.551879 4.865232 -0.427464
v 1.723746 4.284235 -0.550031
v 1.434039 4.543899 -0.342486
v 0.955882 4.749261 -0.031605
v -1.723746 4.284235 -0.550031
v -1.434039 4.543899 -0.342485
v -0.955881 4.749261 -0.031604
v -1.990410 3.998556 0.425114
v -1.655885 4.306233 0.468769
v -1.103757 4.590841 0.509150
v -1.723745 3.712877 1.400258
v -1.434038 4.068568 1.280022
v -0.955881 4.432422 1.049904
v -0.995204 3.503746 2.114112
v -0.827942 3.894585 1.873900
v -0.551878 4.316451 1.445763
v 0.000000 3.427198 2.375402
v 0.000000 3.830903 2.091275
v 0.000000 4.274002 1.590658
v 0.995205 3.503746 2.114112
v 0.827943 3.894585 1.873900
v 0.551878 4.316450 1.445763
v 1.723745 3.712877 1.400257
v 1.434038 4.068568 1.280021
v 0.955881 4.432422 1.049904
v -0.000000 4.907681 -0.572358
v 0.000000 4.781564 -1.153739
v 0.000000 4.569913 -1.525176
v 0.551879 4.865232 -0.427464
v 0.827942 4.717882 -0.936364
v 0.995205 4.493366 -1.263887
v 1.103756 4.590842 0.509150
v 1.655885 4.306234 0.468768
v 1.990409 3.998556 0.425113
v 0.000000 4.770531 0.534645
v -0.000000 -0.025041 -0.432399
v 0.292809 -0.025041 -0.353941
v 0.507161 -0.025041 -0.139589
v 0.585619 -0.025041 0.153220
v 0.507161 -0.025041 0.446030
v 0.292809 -0.025041 0.660381
v 0.000000 -0.025041 0.738839
v -0.292809 -0.025041 0.660381
v -0.507161 -0.025041 0.446030
v -0.585619 -0.025041 0.153221
v -0.507161 -0.025041 -0.139589
v -0.292810 -0.025041 -0.353940
v 0.000000 -0.059658 0.153220
vt 0.297607 0.675113
vt 0.355256 0.617616
vt 0.390368 0.680277
vt 0.313681 0.700929
vt 0.392080 0.751510
vt 0.315315 0.731354
vt 0.359269 0.814133
vt 0.301987 0.758810
vt 0.300511 0.852660
vt 0.276960 0.776292
vt 0.231099 0.857438
vt 0.246604 0.779241
vt 0.170378 0.826167
vt 0.218764 0.766846
vt 0.132813 0.769735
vt 0.200649 0.742301
vt 0.196103 0.730937
vt 0.124779 0.746858
vt 0.122783 0.676122
vt 0.197571 0.700490
vt 0.159240 0.616877
vt 0.213829 0.674679
vt 0.220786 0.583232
vt 0.240609 0.660078
vt 0.602069 0.361566
vt 0.541016 0.391036
vt 0.523251 0.326234
vt 0.549259 0.308695
vt 0.291692 0.583649
vt 0.271065 0.660275
vt 0.706638 0.740704
vt 0.678020 0.797483
vt 0.713464 0.814952
vt 0.731932 0.757118
vt 0.661159 0.861213
vt 0.701125 0.875294
vt 0.655128 0.928163
vt 0.694426 0.938262
vt 0.689347 0.714693
vt 0.647236 0.772389
vt 0.623335 0.842482
vt 0.615554 0.914529
vt 0.685000 0.681556
vt 0.623551 0.740987
vt 0.588597 0.820404
vt 0.575818 0.897987
vt 0.692448 0.646334
vt 0.608425 0.705278
vt 0.557848 0.795901
vt 0.535813 0.879733
vt 0.708749 0.611519
vt 0.600601 0.667952
vt 0.532818 0.767683
vt 0.495186 0.861481
vt 0.891347 0.702754
vt 0.927920 0.783574
vt 0.954770 0.764524
vt 0.905253 0.666963
vt 0.934197 0.872701
vt 0.967282 0.864784
vt 0.927385 0.951483
vt 0.965742 0.951665
vt 0.871397 0.729431
vt 0.897600 0.801331
vt 0.899792 0.881400
vt 0.888920 0.952366
vt 0.847023 0.749622
vt 0.864117 0.815620
vt 0.862944 0.887366
vt 0.850265 0.953397
vt 0.819248 0.762349
vt 0.827858 0.824971
vt 0.824002 0.890527
vt 0.811322 0.953397
vt 0.789827 0.767457
vt 0.789829 0.828325
vt 0.783602 0.890047
vt 0.772194 0.951308
vt 0.760332 0.765636
vt 0.751279 0.825122
vt 0.742502 0.885116
vt 0.733139 0.946376
vt 0.567672 0.283613
vt 0.510426 0.265809
vt 0.571388 0.252516
vt 0.636396 0.302765
vt 0.604348 0.174088
vt 0.637201 0.233727
vt 0.553336 0.227166
vt 0.472818 0.391148
vt 0.491739 0.322942
vt 0.415331 0.355942
vt 0.465782 0.305287
vt 0.382778 0.296385
vt 0.452331 0.277371
vt 0.382830 0.228178
vt 0.455368 0.246913
vt 0.420903 0.171989
vt 0.468812 0.219069
vt 0.479920 0.137733
vt 0.497428 0.206562
vt 0.547211 0.139438
vt 0.528302 0.209245
vt 0.407808 0.853296
vt 0.323567 0.910525
vt 0.446379 0.884878
vt 0.341737 0.956815
vt 0.222193 0.919240
vt 0.215207 0.968610
vt 0.129960 0.876645
vt 0.098855 0.917135
vt 0.071587 0.794689
vt 0.022089 0.815366
vt 0.060226 0.760474
vt 0.062387 0.659263
vt 0.007953 0.771116
vt 0.014162 0.644408
vt 0.115654 0.572331
vt 0.080989 0.536583
vt 0.204751 0.522992
vt 0.191859 0.474856
vt 0.449405 0.660351
vt 0.453587 0.762251
vt 0.496617 0.644368
vt 0.502718 0.771134
vt 0.306709 0.523199
vt 0.318769 0.474855
vt 0.396184 0.572605
vt 0.429673 0.536552
vt 0.578140 0.012641
vt 0.695465 0.080546
vt 0.671934 0.105192
vt 0.569832 0.046213
vt 0.644544 0.134111
vt 0.560236 0.085644
vt 0.442602 0.012542
vt 0.452202 0.045863
vt 0.463597 0.084944
vt 0.325221 0.080269
vt 0.350478 0.104393
vt 0.380200 0.132808
vt 0.257473 0.197622
vt 0.290830 0.205922
vt 0.329916 0.215620
vt 0.257473 0.333138
vt 0.290703 0.323554
vt 0.329712 0.312210
vt 0.325230 0.450489
vt 0.349191 0.425532
vt 0.377265 0.396172
vt 0.442576 0.518227
vt 0.450892 0.484571
vt 0.460554 0.445040
vt 0.763235 0.197802
vt 0.763148 0.333225
vt 0.729507 0.324919
vt 0.729388 0.207730
vt 0.689988 0.315529
vt 0.689330 0.219204
vt 0.578053 0.518215
vt 0.568220 0.484734
vt 0.556673 0.445297
vt 0.695363 0.450493
vt 0.670598 0.426714
vt 0.641569 0.398868
vt 0.860487 0.717692
vt 0.877851 0.692685
vt 0.738157 0.743765
vt 0.716764 0.729841
vt 0.797150 0.667366
vt 0.839343 0.736387
vt 0.815050 0.747916
vt 0.763090 0.750989
vt 0.789157 0.752494
vt 0.703655 0.707996
vt 0.701949 0.680253
vt 0.710183 0.649625
vt 0.719315 0.614814
vt 0.893485 0.663214
vn 0.0000 -0.4215 -0.9068
vn 0.0000 -0.8365 -0.5479
vn 0.1509 -0.8478 -0.5083
vn 0.3842 -0.4458 -0.8085
vn 0.2575 -0.8787 -0.4020
vn 0.6661 -0.5128 -0.5416
vn 0.2905 -0.9202 -0.2623
vn 0.7750 -0.6068 -0.1767
vn 0.2454 -0.9607 -0.1295
vn 0.6814 -0.7052 0.1959
vn 0.1392 -0.9896 -0.0365
vn 0.3999 -0.7813 0.4791
vn 0.0000 -1.0000 -0.0033
vn 0.0000 -0.8103 0.5860
vn -0.1392 -0.9896 -0.0365
vn -0.3999 -0.7813 0.4791
vn -0.2454 -0.9607 -0.1295
vn -0.6814 -0.7052 0.1959
vn -0.2905 -0.9202 -0.2623
vn -0.7750 -0.6068 -0.1767
vn -0.2575 -0.8787 -0.4020
vn -0.6661 -0.5128 -0.5416
vn 0.0000 0.9955 -0.0949
vn -0.1863 0.9814 -0.0451
vn -0.0780 0.9855 0.1503
vn 0.0000 0.9915 0.1300
vn -0.1509 -0.8478 -0.5083
vn -0.3842 -0.4458 -0.8085
vn -0.3291 0.7623 -0.5573
vn -0.4972 0.0187 -0.8674
vn 0.0000 0.0168 -0.9998
vn 0.0000 0.7572 -0.6532
vn -0.4992 0.1485 -0.8537
vn 0.0000 0.1629 -0.9866
vn -0.5517 0.7758 -0.3061
vn -0.8623 0.0233 -0.5059
vn -0.8630 0.1088 -0.4933
vn -0.6089 0.7931 0.0120
vn -0.9995 0.0278 -0.0106
vn -0.9986 0.0525 -0.0033
vn -0.5036 0.8093 0.3023
vn -0.8713 0.0300 0.4899
vn -0.8710 -0.0069 0.4912
vn -0.2810 0.8205 0.4979
vn -0.5063 0.0299 0.8618
vn -0.5070 -0.0529 0.8603
vn 0.0000 0.8244 0.5660
vn 0.0000 0.0295 0.9995
vn 0.0000 -0.0704 0.9975
vn 0.2810 0.8205 0.4979
vn 0.5063 0.0299 0.8618
vn 0.5070 -0.0529 0.8603
vn 0.5036 0.8093 0.3023
vn 0.8713 0.0300 0.4899
vn 0.8710 -0.0069 0.4912
vn 0.6089 0.7931 0.0120
vn 0.9995 0.0278 -0.0106
vn 0.9986 0.0525 -0.0033
vn 0.5517 0.7758 -0.3061
vn 0.8623 0.0233 -0.5059
vn 0.8630 0.1088 -0.4933
vn 0.3291 0.7623 -0.5573
vn 0.4972 0.0187 -0.8674
vn 0.4992 0.1485 -0.8537
vn 0.0780 0.9855 0.1503
vn 0.0000 0.9598 0.2805
vn 0.1337 0.9696 0.2047
vn 0.1863 0.9814 -0.0451
vn 0.3573 0.8972 0.2594
vn 0.3166 0.9445 0.0868
vn 0.1525 0.9486 0.2771
vn -0.3166 0.9445 0.0868
vn -0.1337 0.9696 0.2047
vn -0.3573 0.8972 0.2594
vn -0.1525 0.9486 0.2771
vn -0.3034 0.8527 0.4252
vn -0.1309 0.9283 0.3481
vn -0.1730 0.8216 0.5431
vn -0.0752 0.9136 0.3995
vn 0.0000 0.8105 0.5857
vn 0.0000 0.9083 0.4183
vn 0.1730 0.8216 0.5431
vn 0.0752 0.9136 0.3995
vn 0.3034 0.8527 0.4252
vn 0.1309 0.9283 0.3481
vn 0.3600 -0.8959 -0.2604
vn 0.3188 -0.9438 -0.0865
vn 0.9796 -0.1946 -0.0492
vn 0.8523 -0.3085 0.4223
vn 0.1874 -0.9812 0.0460
vn 0.4959 -0.3941 0.7737
vn 0.0000 -0.9954 0.0957
vn 0.0000 -0.4262 0.9046
vn -0.1874 -0.9812 0.0460
vn -0.4959 -0.3941 0.7737
vn -0.3188 -0.9438 -0.0865
vn -0.8523 -0.3085 0.4223
vn -0.3600 -0.8959 -0.2604
vn -0.9796 -0.1946 -0.0492
vn -0.3055 -0.8509 -0.4273
vn -0.8505 -0.0811 -0.5196
vn 0.1740 -0.8197 -0.5457
vn 0.3055 -0.8509 -0.4273
vn 0.4943 0.0035 -0.8693
vn 0.8505 -0.0811 -0.5196
vn -0.1740 -0.8197 -0.5457
vn -0.4943 0.0035 -0.8693
vn 0.0000 -0.8086 -0.5884
vn 0.0000 0.0351 -0.9994
vn 0.7255 0.6618 0.1888
vn 0.6099 0.5909 0.5281
vn 0.5872 0.7783 0.2221
vn 0.4949 0.7139 0.4954
vn 0.3453 0.5428 0.7655
vn 0.2807 0.6699 0.6873
vn 0.0000 0.5259 0.8505
vn 0.0000 0.6543 0.7562
vn -0.3453 0.5428 0.7655
vn -0.2807 0.6699 0.6873
vn -0.6099 0.5909 0.5281
vn -0.4949 0.7139 0.4954
vn -0.7255 0.6618 0.1888
vn -0.5872 0.7783 0.2221
vn -0.6501 0.7400 -0.1722
vn -0.5246 0.8487 -0.0669
vn 0.3861 0.8031 -0.4539
vn 0.6501 0.7400 -0.1722
vn 0.3106 0.9048 -0.2911
vn 0.5246 0.8487 -0.0669
vn -0.3861 0.8031 -0.4539
vn -0.3106 0.9048 -0.2911
vn 0.0000 0.8276 -0.5613
vn 0.0000 0.9265 -0.3762
vn -0.1396 0.9602 -0.2419
vn 0.0000 0.9602 -0.2793
vn 0.0000 0.9602 0.2793
vn 0.1396 0.9602 0.2419
vn 0.0000 1.0000 0.0000
vn -0.2419 0.9602 -0.1396
vn -0.2793 0.9602 0.0000
vn -0.1396 0.9602 0.2419
vn -0.2419 0.9602 0.1396
vn 0.2419 0.9602 0.1396
vn 0.2793 0.9602 0.0000
vn 0.2419 0.9602 -0.1396
vn 0.1396 0.9602 -0.2419
usemtl Shroom
s 1
f 27/1/1 2/2/2 4/3/3 28/4/4
f 28/4/4 4/3/3 6/5/5 31/6/6
f 31/6/6 6/5/5 8/7/7 34/8/8
f 34/8/8 8/7/7 10/9/9 37/10/10
f 37/10/10 10/9/9 12/11/11 40/12/12
f 40/12/12 12/11/11 14/13/13 43/14/14
f 43/14/14 14/13/13 16/15/15 46/16/16
f 46/17/16 16/18/15 18/19/17 49/20/18
f 49/20/18 18/19/17 20/21/19 52/22/20
f 52/22/20 20/21/19 22/23/21 55/24/22
f 124/25/23 99/26/24 72/27/25 61/28/26
f 55/24/22 22/23/21 24/29/27 58/30/28
f 58/30/28 24/29/27 2/2/2 27/1/1
f 23/31/29 60/32/30 25/33/31 1/34/32
f 60/32/30 59/35/33 26/36/34 25/33/31
f 59/35/33 58/37/28 27/38/1 26/36/34
f 21/39/35 57/40/36 60/32/30 23/31/29
f 57/40/36 56/41/37 59/35/33 60/32/30
f 56/41/37 55/42/22 58/37/28 59/35/33
f 19/43/38 54/44/39 57/40/36 21/39/35
f 54/44/39 53/45/40 56/41/37 57/40/36
f 53/45/40 52/46/20 55/42/22 56/41/37
f 17/47/41 51/48/42 54/44/39 19/43/38
f 51/48/42 50/49/43 53/45/40 54/44/39
f 50/49/43 49/50/18 52/46/20 53/45/40
f 15/51/44 48/52/45 51/48/42 17/47/41
f 48/52/45 47/53/46 50/49/43 51/48/42
f 47/53/46 46/54/16 49/50/18 50/49/43
f 13/55/47 45/56/48 48/57/45 15/58/44
f 45/56/48 44/59/49 47/60/46 48/57/45
f 44/59/49 43/61/14 46/62/16 47/60/46
f 11/63/50 42/64/51 45/56/48 13/55/47
f 42/64/51 41/65/52 44/59/49 45/56/48
f 41/65/52 40/66/12 43/61/14 44/59/49
f 9/67/53 39/68/54 42/64/51 11/63/50
f 39/68/54 38/69/55 41/65/52 42/64/51
f 38/69/55 37/70/10 40/66/12 41/65/52
f 7/71/56 36/72/57 39/68/54 9/67/53
f 36/72/57 35/73/58 38/69/55 39/68/54
f 35/73/58 34/74/8 37/70/10 38/69/55
f 5/75/59 33/76/60 36/72/57 7/71/56
f 33/76/60 32/77/61 35/73/58 36/72/57
f 32/77/61 31/78/6 34/74/8 35/73/58
f 3/79/62 30/80/63 33/76/60 5/75/59
f 30/80/63 29/81/64 32/77/61 33/76/60
f 29/81/64 28/82/4 31/78/6 32/77/61
f 1/34/32 25/33/31 30/80/63 3/79/62
f 25/33/31 26/36/34 29/81/64 30/80/63
f 26/36/34 27/38/1 28/82/4 29/81/64
f 62/83/65 133/84/66 63/85/67
f 127/86/68 124/25/23 61/28/26 62/83/65
f 130/87/69 102/88/70 63/85/67 64/89/71
f 99/26/24 105/90/72 71/91/73 72/27/25
f 102/88/70 127/86/68 62/83/65 63/85/67
f 105/90/72 108/92/74 70/93/75 71/91/73
f 108/92/74 111/94/76 69/95/77 70/93/75
f 111/94/76 114/96/78 68/97/79 69/95/77
f 114/96/78 117/98/80 67/99/81 68/97/79
f 117/98/80 120/100/82 66/101/83 67/99/81
f 120/100/82 123/102/84 65/103/85 66/101/83
f 123/102/84 130/87/69 64/89/71 65/103/85
f 10/9/9 8/7/7 82/104/86 95/105/87
f 95/105/87 82/104/86 81/106/88 96/107/89
f 12/11/11 10/9/9 95/105/87 93/108/90
f 93/108/90 95/105/87 96/107/89 94/109/91
f 14/13/13 12/11/11 93/108/90 91/110/92
f 91/110/92 93/108/90 94/109/91 92/111/93
f 16/15/15 14/13/13 91/110/92 89/112/94
f 89/112/94 91/110/92 92/111/93 90/113/95
f 18/19/17 16/18/15 89/114/94 87/115/96
f 87/115/96 89/114/94 90/116/95 88/117/97
f 20/21/19 18/19/17 87/115/96 85/118/98
f 85/118/98 87/115/96 88/117/97 86/119/99
f 22/23/21 20/21/19 85/118/98 83/120/100
f 83/120/100 85/118/98 86/119/99 84/121/101
f 6/5/5 4/3/3 78/122/102 79/123/103
f 79/123/103 78/122/102 77/124/104 80/125/105
f 24/29/27 22/23/21 83/120/100 73/126/106
f 73/126/106 83/120/100 84/121/101 74/127/107
f 8/7/7 6/5/5 79/123/103 82/104/86
f 82/104/86 79/123/103 80/125/105 81/106/88
f 4/3/3 2/2/2 76/128/108 78/122/102
f 78/122/102 76/128/108 75/129/109 77/124/104
f 2/2/2 24/29/27 73/126/106 76/128/108
f 76/128/108 73/126/106 74/127/107 75/129/109
f 96/130/89 81/131/88 132/132/110 121/133/111
f 121/133/111 132/132/110 131/134/112 122/135/113
f 122/135/113 131/134/112 130/87/69 123/102/84
f 94/136/91 96/130/89 121/133/111 118/137/114
f 118/137/114 121/133/111 122/135/113 119/138/115
f 119/138/115 122/135/113 123/102/84 120/100/82
f 92/139/93 94/136/91 118/137/114 115/140/116
f 115/140/116 118/137/114 119/138/115 116/141/117
f 116/141/117 119/138/115 120/100/82 117/98/80
f 90/142/95 92/139/93 115/140/116 112/143/118
f 112/143/118 115/140/116 116/141/117 113/144/119
f 113/144/119 116/141/117 117/98/80 114/96/78
f 88/145/97 90/142/95 112/143/118 109/146/120
f 109/146/120 112/143/118 113/144/119 110/147/121
f 110/147/121 113/144/119 114/96/78 111/94/76
f 86/148/99 88/145/97 109/146/120 106/149/122
f 106/149/122 109/146/120 110/147/121 107/150/123
f 107/150/123 110/147/121 111/94/76 108/92/74
f 84/151/101 86/148/99 106/149/122 103/152/124
f 103/152/124 106/149/122 107/150/123 104/153/125
f 104/153/125 107/150/123 108/92/74 105/90/72
f 80/154/105 77/155/104 129/156/126 100/157/127
f 100/157/127 129/156/126 128/158/128 101/159/129
f 101/159/129 128/158/128 127/86/68 102/88/70
f 74/160/107 84/151/101 103/152/124 97/161/130
f 97/161/130 103/152/124 104/153/125 98/162/131
f 98/162/131 104/153/125 105/90/72 99/26/24
f 81/131/88 80/154/105 100/157/127 132/132/110
f 132/132/110 100/157/127 101/159/129 131/134/112
f 131/134/112 101/159/129 102/88/70 130/87/69
f 77/155/104 75/163/109 126/164/132 129/156/126
f 129/156/126 126/164/132 125/165/133 128/158/128
f 128/158/128 125/165/133 124/25/23 127/86/68
f 75/163/109 74/160/107 97/161/130 126/164/132
f 126/164/132 97/161/130 98/162/131 125/165/133
f 125/165/133 98/162/131 99/26/24 124/25/23
f 13/55/47 11/63/50 139/166/134 140/167/135
f 67/99/81 133/84/66 68/97/79
f 70/93/75 133/84/66 71/91/73
f 64/89/71 133/84/66 65/103/85
f 72/27/25 133/84/66 61/28/26
f 66/101/83 133/84/66 67/99/81
f 71/91/73 133/84/66 72/27/25
f 65/103/85 133/84/66 66/101/83
f 69/95/77 133/84/66 70/93/75
f 63/85/67 133/84/66 64/89/71
f 68/97/79 133/84/66 69/95/77
f 133/84/66 62/83/65 61/28/26
f 134/168/136 145/169/137 146/170/138
f 11/63/50 9/67/53 138/171/139 139/166/134
f 9/67/53 7/71/56 137/172/140 138/171/139
f 1/34/32 23/31/29 145/169/137 134/168/136
f 3/79/62 1/34/32 134/168/136 135/173/141
f 7/71/56 5/75/59 136/174/142 137/172/140
f 23/31/29 21/39/35 144/175/143 145/169/137
f 5/75/59 3/79/62 135/173/141 136/174/142
f 21/39/35 19/43/38 143/176/144 144/175/143
f 19/43/38 17/47/41 142/177/145 143/176/144
f 17/47/41 15/51/44 141/178/146 142/177/145
f 15/58/44 13/55/47 140/167/135 141/179/146
f 140/167/135 139/166/134 146/170/138
f 146/170/138 137/172/140 136/174/142
f 146/170/138 141/179/146 140/167/135
f 146/170/138 138/171/139 137/172/140
f 146/170/138 144/175/143 143/176/144
f 146/170/138 139/166/134 138/171/139
f 146/170/138 145/169/137 144/175/143
f 135/173/141 134/168/136 146/170/138
f 141/178/146 146/170/138 142/177/145
f 136/174/142 135/173/141 146/170/138
f 142/177/145 146/170/138 143/176/144
